<svg xmlns="http://www.w3.org/2000/svg" viewBox="0 0 550 350">
  <rect width="550" height="350" fill="#ffffff"/>
  <style>
    .wire { stroke: #333; stroke-width: 2; fill: none; }
    .component { stroke: #333; stroke-width: 1.5; fill: #fff; }
    .label { font-family: Arial, sans-serif; font-size: 12px; fill: #333; }
    .value { font-family: Arial, sans-serif; font-size: 10px; fill: #666; }
    .pin { font-family: Arial, sans-serif; font-size: 9px; fill: #999; }
  </style>
  
  <text x="275" y="25" text-anchor="middle" class="label" style="font-size: 16px; font-weight: bold;">LM386 Audio Amplifier</text>
  
  <line x1="350" y1="50" x2="350" y2="80" class="wire" stroke="#c00"/>
  <text x="355" y="55" class="label" fill="#c00">+9V</text>
  
  <rect x="200" y="120" width="100" height="100" class="component" fill="#f5f5f5"/>
  <text x="250" y="175" text-anchor="middle" class="label" style="font-weight: bold;">LM386</text>
  
  <text x="190" y="140" text-anchor="end" class="pin">1 GAIN</text>
  <text x="190" y="160" text-anchor="end" class="pin">2 -IN</text>
  <text x="190" y="180" text-anchor="end" class="pin">3 +IN</text>
  <text x="190" y="200" text-anchor="end" class="pin">4 GND</text>
  <text x="310" y="140" class="pin">GAIN 8</text>
  <text x="310" y="160" class="pin">BYPASS 7</text>
  <text x="310" y="180" class="pin">VCC 6</text>
  <text x="310" y="200" class="pin">OUT 5</text>
  
  <circle cx="200" cy="135" r="3" fill="#333"/>
  <circle cx="200" cy="155" r="3" fill="#333"/>
  <circle cx="200" cy="175" r="3" fill="#333"/>
  <circle cx="200" cy="195" r="3" fill="#333"/>
  <circle cx="300" cy="135" r="3" fill="#333"/>
  <circle cx="300" cy="155" r="3" fill="#333"/>
  <circle cx="300" cy="175" r="3" fill="#333"/>
  <circle cx="300" cy="195" r="3" fill="#333"/>
  
  <line x1="300" y1="175" x2="350" y2="175" class="wire"/>
  <line x1="350" y1="175" x2="350" y2="80" class="wire"/>
  
  <line x1="300" y1="155" x2="350" y2="155" class="wire"/>
  <line x1="350" y1="155" x2="350" y2="175" class="wire"/>
  <circle cx="350" cy="155" r="3" fill="#333"/>
  
  <line x1="200" y1="195" x2="160" y2="195" class="wire"/>
  <line x1="160" y1="195" x2="160" y2="300" class="wire"/>
  
  <text x="50" y="140" class="label">Audio</text>
  <text x="50" y="155" class="label">Input</text>
  
  <line x1="70" y1="160" x2="100" y2="160" class="wire"/>
  <rect x="100" y="145" width="30" height="30" class="component"/>
  <text x="115" y="165" text-anchor="middle" class="value">VOL</text>
  <text x="115" y="190" text-anchor="middle" class="value">10k</text>
  <line x1="130" y1="160" x2="160" y2="160" class="wire"/>
  
  <line x1="160" y1="160" x2="160" y2="175" class="wire"/>
  <line x1="150" y1="175" x2="170" y2="175" class="wire" stroke-width="2"/>
  <line x1="153" y1="182" x2="167" y2="182" class="wire" stroke-width="2"/>
  <line x1="160" y1="182" x2="200" y2="175" class="wire"/>
  
  <line x1="200" y1="155" x2="140" y2="155" class="wire"/>
  <line x1="140" y1="155" x2="140" y2="300" class="wire"/>
  
  <line x1="300" y1="195" x2="380" y2="195" class="wire"/>
  
  <line x1="380" y1="195" x2="380" y2="180" class="wire"/>
  <line x1="370" y1="180" x2="390" y2="180" class="wire" stroke-width="3"/>
  <line x1="373" y1="170" x2="387" y2="170" class="wire" stroke-width="2"/>
  <text x="395" y="180" class="value">C1</text>
  <text x="395" y="192" class="value">220uF</text>
  <line x1="380" y1="170" x2="380" y2="150" class="wire"/>
  <line x1="380" y1="150" x2="450" y2="150" class="wire"/>
  
  <line x1="380" y1="195" x2="380" y2="230" class="wire"/>
  <circle cx="380" cy="195" r="3" fill="#333"/>
  <rect x="370" y="230" width="20" height="30" class="component"/>
  <text x="395" y="250" class="value">R1 10</text>
  <line x1="380" y1="260" x2="380" y2="270" class="wire"/>
  <line x1="370" y1="270" x2="390" y2="270" class="wire" stroke-width="2"/>
  <line x1="373" y1="278" x2="387" y2="278" class="wire" stroke-width="2"/>
  <text x="395" y="278" class="value">C2 47nF</text>
  <line x1="380" y1="278" x2="380" y2="300" class="wire"/>
  
  <rect x="450" y="130" width="50" height="60" class="component" fill="#f0f0f0"/>
  <text x="475" y="165" text-anchor="middle" class="label">8 ohm</text>
  <text x="475" y="180" text-anchor="middle" class="label">Speaker</text>
  <line x1="475" y1="190" x2="475" y2="300" class="wire"/>
  
  <line x1="140" y1="300" x2="475" y2="300" class="wire"/>
  
  <line x1="250" y1="300" x2="250" y2="320" class="wire"/>
  <line x1="240" y1="320" x2="260" y2="320" class="wire"/>
  <line x1="243" y1="325" x2="257" y2="325" class="wire"/>
  <line x1="246" y1="330" x2="254" y2="330" class="wire"/>
  
  <text x="50" y="340" class="value">Components: LM386, Volume pot 10k, C1=220uF, C2=47nF, R1=10 ohm, 8 ohm speaker</text>
</svg>